<?xml version="1.0" encoding="utf-8"?>
<!-- Generator: Adobe Illustrator 18.0.0, SVG Export Plug-In . SVG Version: 6.00 Build 0)  -->
<!DOCTYPE svg PUBLIC "-//W3C//DTD SVG 1.1//EN" "http://www.w3.org/Graphics/SVG/1.1/DTD/svg11.dtd">
<svg version="1.1" xmlns="http://www.w3.org/2000/svg" xmlns:xlink="http://www.w3.org/1999/xlink" x="0px" y="0px"
	 viewBox="0 0 932.4 768" enable-background="new 0 0 932.4 768" xml:space="preserve">
<g id="Background">
	<rect x="-13.7" y="0" fill="#23495F" width="946" height="768"/>
</g>
<g id="Objects">
	<path opacity="0.5" fill-rule="evenodd" clip-rule="evenodd" fill="#FFFFFF" d="M328.9,275.3L749.9,0h182.5l0,0L545,551
		C400.4,759.1,97,427.5,328.9,275.3z"/>
	<rect x="29.1" y="286.5" fill-rule="evenodd" clip-rule="evenodd" fill="#95B3C4" width="488.5" height="330.8"/>
	<rect x="29.1" y="286.5" fill-rule="evenodd" clip-rule="evenodd" fill="#5C8196" width="488.5" height="42.9"/>
	<g>
		<path fill-rule="evenodd" clip-rule="evenodd" fill="#FFFFFF" d="M238.7,431.3c19.1,0,34.6-15.5,34.6-34.6
			c0-19.1-15.5-34.6-34.6-34.6c-19.1,0-34.6,15.5-34.6,34.6C204.1,415.7,219.7,431.3,238.7,431.3z"/>
		<g>
			<path fill-rule="evenodd" clip-rule="evenodd" d="M252.2,373.6c5.4-2.3,11.7,0.3,14,5.7c2.3,5.4-0.3,11.7-5.7,14
				c-5.4,2.3-11.7-0.3-14-5.7C244.2,382.1,246.8,375.9,252.2,373.6z"/>
			<circle fill-rule="evenodd" clip-rule="evenodd" fill="#FFFFFF" cx="258.7" cy="377.3" r="3.5"/>
		</g>
	</g>
	<path fill="#193545" d="M205.7,354.5c-0.8,1.1-1.6,0.5-1.7-1.4c-0.1-1.9,0.5-4.3,1.4-5.4c4.6-6.2,15.4-13.4,28.4-19.3
		c11.9-5.5,25.8-9.9,38.2-11.4c0.8-0.1,1.1,1.6,0.8,3.8c-0.3,2.2-1.2,4-2,4.1c-12.3,1.5-26,5.9-37.8,11.3
		C220.4,342,210,348.8,205.7,354.5z"/>
	<path opacity="0.9" fill-rule="evenodd" clip-rule="evenodd" fill="#23495F" d="M317.4,283.3c-1.8,1.4-7.6,6-9.3,7.4
		C165,408.7,290,609.3,420.7,618.4h-394V283.3H317.4L317.4,283.3z M439,618.4c27.3-1.9,54.2-13.9,78.6-36v36H439z"/>
	<path fill-rule="evenodd" clip-rule="evenodd" fill="#F98118" d="M313.4,286.5h204.2v296.1c-24,21.8-50.6,32.6-77.6,34.7h-20.3
		C287.8,607,162.3,403.5,313.4,286.5z"/>
	<g>
		<path fill-rule="evenodd" clip-rule="evenodd" fill="#FFFFFF" d="M253.6,365.4c11.7,5.6,19.8,17.5,19.8,31.3
			c0,17-12.2,31.1-28.4,34C243.3,408.9,245.9,386.8,253.6,365.4z"/>
		<g>
			<path fill-rule="evenodd" clip-rule="evenodd" d="M252.2,373.6c5.4-2.3,11.7,0.3,14,5.7c2.3,5.4-0.3,11.7-5.7,14
				c-5,2.1-10.6,0.1-13.3-4.4c0.9-4.9,2.1-9.7,3.5-14.5C251.1,374.1,251.7,373.8,252.2,373.6z"/>
			<circle fill-rule="evenodd" clip-rule="evenodd" fill="#FFFFFF" cx="258.7" cy="377.3" r="3.5"/>
		</g>
	</g>
	<path fill-rule="evenodd" clip-rule="evenodd" fill="#FFFFFF" d="M320.3,431.3c19.1,0,34.6-15.5,34.6-34.6
		c0-19.1-15.5-34.6-34.6-34.6c-19.1,0-34.6,15.5-34.6,34.6C285.7,415.7,301.2,431.3,320.3,431.3z"/>
	<g>
		<path fill-rule="evenodd" clip-rule="evenodd" d="M333.8,373.6c5.4-2.3,11.7,0.3,14,5.7c2.3,5.4-0.3,11.7-5.7,14
			c-5.4,2.3-11.7-0.3-14-5.7C325.8,382.1,328.3,375.9,333.8,373.6z"/>
		<circle fill-rule="evenodd" clip-rule="evenodd" fill="#FFFFFF" cx="340.2" cy="377.3" r="3.5"/>
	</g>
	<g>
		<path fill="#193545" d="M262.3,457.3l5.6,3l-0.1,0.1l-0.1,0.1l-0.1,0.1l-0.1,0.1l-0.1,0.1l-0.1,0.1l-0.1,0.1l-0.1,0.1l-0.1,0.1
			l-0.1,0.1l-0.1,0.1l-0.1,0.1l-0.1,0.1l-0.1,0.1l-0.1,0.1l-0.1,0l-0.1,0l-0.1,0l-0.2,0l-0.2,0l-0.2,0l-0.2,0l-0.2,0l-0.2,0l-0.2,0
			l-0.2,0l-0.2,0l-0.2,0l-0.2-0.1l-0.1-0.1l-0.1-0.1l-0.1-0.1l-0.1-0.1l-0.1-0.1l-0.1-0.1l-0.1-0.1l-0.1-0.1l-0.1-0.1l-0.1-0.1
			l-0.1-0.1l-0.1-0.1l-0.1-0.1l-0.1-0.1l-0.1-0.1l-0.1-0.1l-0.1-0.1l-0.1-0.1l0-0.1l0-0.1l0-0.1l0-0.2l0-0.2l0-0.2l0-0.2l0-0.2
			l0-0.2l0-0.2l0-0.2l0-0.2l0-0.2l0-0.2l0.1-0.1l0.1-0.1L262.3,457.3L262.3,457.3z M328.3,452.2l-5.5,3.2l-1-1.6l-1.1-1.5l-1.3-1.3
			l-1.4-1.2l-1.5-1.1l-1.6-1l-1.7-0.9l-1.7-0.8l-1.8-0.7l-1.9-0.6l-2-0.4l-2-0.3l-2-0.2l-2.1-0.1l-2.1,0l-2.1,0.1l-2.1,0.2l-2.1,0.4
			l-2.1,0.5l-2.1,0.6l-2,0.7l-2,0.8l-1.9,0.9l-1.9,1l-1.8,1.1l-1.7,1.2l-1.6,1.3l-1.5,1.4l-1.4,1.5l-1.3,1.6l-1.2,1.7l-1,1.8l-5.6-3
			l1.3-2.2l1.4-2.1l1.6-1.9l1.7-1.8l1.8-1.7l1.9-1.6l2-1.4l2.1-1.3l2.2-1.2l2.2-1l2.3-0.9l2.4-0.8l2.4-0.7l2.4-0.5l2.4-0.4l2.5-0.3
			l2.5-0.2l2.4,0l2.4,0.1l2.4,0.2l2.4,0.4l2.3,0.5l2.3,0.7l2.2,0.8l2.2,1l2.1,1.1l2,1.3l1.9,1.4l1.8,1.6l1.6,1.8l1.5,1.9
			L328.3,452.2L328.3,452.2z M322.9,455.4l5.5-3.2l0.1,0.1l0.1,0.1l0.1,0.1l0.1,0.1l0,0.1l0,0.2l0,0.2l0,0.2l0,0.2l0,0.2v0.2l0,0.2
			l0,0.2l0,0.2l0,0.1l0,0.1l0,0.1l0,0.1l-0.1,0.1l-0.1,0.1l-0.1,0.1l-0.1,0.1l-0.1,0.1l-0.1,0.1l-0.1,0.1l-0.1,0.1l-0.1,0.1
			l-0.1,0.1l-0.1,0.1l-0.1,0.1l-0.1,0.1l-0.1,0.1l-0.1,0.1l-0.1,0.1l-0.1,0.1l-0.2,0.1l-0.1,0l-0.2,0l-0.2,0l-0.2,0l-0.2,0l-0.2,0
			l-0.2,0l-0.2,0l-0.2,0l-0.2,0l-0.1,0l-0.1,0l-0.1,0l-0.1,0l-0.1-0.1l-0.1-0.1l-0.1-0.1l-0.1-0.1l-0.1-0.1l-0.1-0.1l-0.1-0.1
			l-0.1-0.1l-0.1-0.1l-0.1-0.1l-0.1-0.1l-0.1-0.1l-0.1-0.1L322.9,455.4z"/>
	</g>
	<path fill-rule="evenodd" clip-rule="evenodd" fill="#4F96BF" d="M313.4,286.5h204.2v42.9H272.1
		C282.5,314.2,296.2,299.8,313.4,286.5z"/>
	<path fill="#193545" d="M373.8,353.4c0.9,1.1,1.6,0.5,1.6-1.4c0-1.9-0.7-4.3-1.5-5.4c-4.8-6-15.9-12.9-29-18.4
		c-12.1-5.1-26.1-9.1-38.5-10.2c-0.8-0.1-1.1,1.6-0.7,3.8c0.4,2.2,1.4,4,2.1,4c12.4,1.1,26.2,5,38.2,10.1
		C358.8,341.4,369.4,347.9,373.8,353.4z"/>
</g>
</svg>
